<svg width="700" height="700" viewBox="0 0 700 700" fill="none" xmlns="http://www.w3.org/2000/svg">
<rect width="700" height="700" fill="black"/>
<circle cx="350" cy="240" r="197.5" fill="black" stroke="#D6CB68" stroke-width="5"/>
<path d="M270 165.835L262.982 174.129C199.216 249.478 252.775 364.964 351.485 364.963V364.963V364.963C449.547 364.962 502.336 249.831 438.345 175.525L430 165.835" stroke="white" stroke-width="20" stroke-linecap="round"/>
<path d="M361.5 148.156C361.5 146.345 362.392 144.65 363.884 143.624L431.884 96.8739C435.533 94.3651 440.5 96.9777 440.5 101.406V229.741C440.5 233.947 435.97 236.597 432.304 234.535L364.304 196.285C362.572 195.31 361.5 193.478 361.5 191.491V148.156Z" fill="white" stroke="black"/>
<path d="M338.5 148.156C338.5 146.345 337.608 144.65 336.116 143.624L268.116 96.8739C264.467 94.3651 259.5 96.9777 259.5 101.406V229.741C259.5 233.947 264.03 236.597 267.696 234.535L335.696 196.285C337.428 195.31 338.5 193.478 338.5 191.491V148.156Z" fill="white" stroke="black"/>
<path d="M331.5 149C331.5 145.962 333.962 143.5 337 143.5H366C369.038 143.5 371.5 145.962 371.5 149V193C371.5 196.038 369.038 198.5 366 198.5H337C333.962 198.5 331.5 196.038 331.5 193V149Z" fill="white" stroke="black"/>
<path d="M167.209 503.624L159.625 502.472V497.672H185.737V502.472L177.481 503.624V529.448H211.273V503.624L203.497 502.472V497.672H229.225V502.472L221.641 503.624V563.336L229.225 564.296V569H203.401V564.296L211.273 563.336V535.4H177.481V563.336L185.833 564.296V569H159.433V564.296L167.209 563.336V503.624ZM280.693 569.864C278.901 569.864 277.557 569.512 276.661 568.808C275.829 568.104 275.413 566.952 275.413 565.352V562.088C273.301 564.2 270.645 566.056 267.445 567.656C264.309 569.256 261.141 570.056 257.941 570.056C251.989 570.056 247.765 568.456 245.269 565.256C242.773 562.056 241.525 556.776 241.525 549.416V521.576L236.149 520.04V515.816L249.589 514.568H249.685L251.509 515.72V548.648C251.509 552.36 251.765 555.272 252.277 557.384C252.853 559.432 253.813 560.968 255.157 561.992C256.565 562.952 258.581 563.432 261.205 563.432C263.765 563.432 266.165 562.888 268.405 561.8C270.645 560.712 272.597 559.432 274.261 557.96V521.576L267.349 520.04V515.816L281.941 514.568H282.037L284.245 515.72V564.104H290.005L289.909 568.424C288.117 568.872 286.549 569.224 285.205 569.48C283.925 569.736 282.421 569.864 280.693 569.864ZM307.557 506.12C305.509 506.12 303.973 505.544 302.949 504.392C301.925 503.24 301.413 501.768 301.413 499.976C301.413 497.928 302.021 496.232 303.237 494.888C304.517 493.544 306.245 492.872 308.421 492.872C310.597 492.872 312.197 493.448 313.221 494.6C314.245 495.752 314.757 497.224 314.757 499.016C314.757 501.192 314.117 502.92 312.837 504.2C311.621 505.48 309.893 506.12 307.653 506.12H307.557ZM303.717 523.112L296.421 521.384V516.296L311.301 514.472H311.493L313.701 516.2V563.528L321.381 564.296V569H295.941V564.296L303.717 563.432V523.112ZM326.662 564.296L332.518 563.432V523.112L325.605 521.384V516.2L339.334 514.472L341.062 515.72L341.638 519.56L341.542 522.632C343.782 520.584 346.822 518.728 350.661 517.064C354.566 515.336 358.054 514.472 361.126 514.472C364.582 514.472 367.366 515.048 369.478 516.2C371.59 517.352 373.19 519.144 374.278 521.576C376.326 519.848 379.174 518.248 382.822 516.776C386.534 515.24 389.99 514.472 393.19 514.472C397.158 514.472 400.262 515.24 402.502 516.776C404.742 518.248 406.31 520.584 407.206 523.784C408.166 526.92 408.646 531.144 408.646 536.456V563.432L415.558 564.296V569H392.71V564.296L398.662 563.432V536.744C398.662 533.032 398.374 530.088 397.798 527.912C397.286 525.672 396.262 524.008 394.726 522.92C393.254 521.832 391.11 521.288 388.294 521.288C386.182 521.288 383.942 521.768 381.574 522.728C379.206 523.624 377.19 524.712 375.526 525.992C376.102 528.488 376.39 532.04 376.39 536.648V563.432L383.206 564.296V569H359.974V564.296L366.31 563.432V536.552C366.31 532.712 366.054 529.736 365.542 527.624C365.094 525.512 364.198 523.944 362.854 522.92C361.51 521.832 359.462 521.288 356.71 521.288C354.406 521.288 351.942 521.864 349.318 523.016C346.758 524.168 344.518 525.512 342.598 527.048V563.432L349.03 564.296V569H326.662V564.296ZM432.177 506.12C430.129 506.12 428.593 505.544 427.569 504.392C426.545 503.24 426.033 501.768 426.033 499.976C426.033 497.928 426.641 496.232 427.857 494.888C429.137 493.544 430.865 492.872 433.041 492.872C435.217 492.872 436.817 493.448 437.841 494.6C438.865 495.752 439.377 497.224 439.377 499.016C439.377 501.192 438.737 502.92 437.457 504.2C436.241 505.48 434.513 506.12 432.273 506.12H432.177ZM428.337 523.112L421.041 521.384V516.296L435.921 514.472H436.113L438.321 516.2V563.528L446.001 564.296V569H420.561V564.296L428.337 563.432V523.112ZM467.793 569.96C464.145 569.96 461.425 569.128 459.633 567.464C457.841 565.8 456.945 562.952 456.945 558.92V522.056H450.033V517.736C450.353 517.672 451.249 517.448 452.721 517.064C454.193 516.68 455.185 516.328 455.697 516.008C456.721 515.432 457.521 514.28 458.097 512.552C458.609 511.336 459.217 509.384 459.921 506.696C460.625 504.008 461.041 502.408 461.169 501.896H466.833L467.025 515.72H483.057V522.056H467.025V551.528C467.025 555.176 467.121 557.736 467.313 559.208C467.569 560.68 468.049 561.64 468.753 562.088C469.521 562.536 470.801 562.76 472.593 562.76C474.321 562.76 476.209 562.536 478.257 562.088C480.369 561.64 482.001 561.16 483.153 560.648L484.593 564.968C483.057 566.12 480.561 567.24 477.105 568.328C473.713 569.416 470.609 569.96 467.793 569.96ZM532.711 569.864C530.919 569.864 529.575 569.512 528.679 568.808C527.847 568.104 527.431 566.952 527.431 565.352V562.088C525.319 564.2 522.663 566.056 519.463 567.656C516.327 569.256 513.159 570.056 509.959 570.056C504.007 570.056 499.783 568.456 497.287 565.256C494.791 562.056 493.543 556.776 493.543 549.416V521.576L488.167 520.04V515.816L501.607 514.568H501.703L503.527 515.72V548.648C503.527 552.36 503.783 555.272 504.295 557.384C504.871 559.432 505.831 560.968 507.175 561.992C508.583 562.952 510.599 563.432 513.223 563.432C515.783 563.432 518.183 562.888 520.423 561.8C522.663 560.712 524.615 559.432 526.279 557.96V521.576L519.367 520.04V515.816L533.959 514.568H534.055L536.263 515.72V564.104H542.023L541.927 568.424C540.135 568.872 538.567 569.224 537.223 569.48C535.943 569.736 534.439 569.864 532.711 569.864Z" fill="white"/>
</svg>
