<svg width="700" height="700" viewBox="0 0 700 700" fill="none" xmlns="http://www.w3.org/2000/svg">
<circle cx="350" cy="240" r="197.5" stroke="#D6CB68" stroke-width="5"/>
<path d="M268.836 161.885L260.445 171.947C196.938 248.103 251.085 363.768 350.243 363.767V363.767V363.767C448.752 363.766 502.141 248.448 438.403 173.341L428.681 161.885" stroke="white" stroke-width="20" stroke-linecap="round"/>
<path d="M362.601 139.38L430.524 91.9914C434.17 89.4476 439.171 92.0564 439.171 96.5021V226.741C439.171 230.963 434.611 233.611 430.944 231.518L363.022 192.745C361.307 191.766 360.248 189.943 360.248 187.969V143.891C360.248 142.093 361.127 140.409 362.601 139.38Z" fill="white" stroke="black"/>
<path d="M334.916 139.38L266.994 91.9914C263.348 89.4476 258.347 92.0564 258.347 96.5021V226.741C258.347 230.963 262.907 233.611 266.574 231.518L334.496 192.745C336.211 191.766 337.269 189.943 337.269 187.969V143.891C337.269 142.093 336.391 140.409 334.916 139.38Z" fill="white" stroke="black"/>
<path d="M335.777 139.233H364.738C367.775 139.233 370.238 141.696 370.238 144.733V189.508C370.238 192.545 367.775 195.008 364.738 195.008H335.777C332.74 195.008 330.277 192.545 330.277 189.508V144.733C330.277 141.696 332.74 139.233 335.777 139.233Z" fill="white" stroke="black"/>
</svg>
