<svg width="200" height="70" viewBox="0 0 200 70" fill="none" xmlns="http://www.w3.org/2000/svg">
<circle cx="35" cy="24" r="19.75" stroke="#D6CB68" stroke-width="5"/>
<path d="M268.836 161.885L260.445 171.947C196.938 248.103 251.085 363.768 350.243 363.767V363.767V363.767C448.752 363.766 502.141 248.448 438.403 173.341L428.681 161.885" stroke="white" stroke-width="20" stroke-linecap="round"/>
<path d="M362.601 139.38L430.524 91.9914C434.17 89.4476 439.171 92.0564 439.171 96.5021V226.741C439.171 230.963 434.611 233.611 430.944 231.518L363.021 192.745C361.307 191.766 360.248 189.943 360.248 187.969V143.891C360.248 142.093 361.127 140.409 362.601 139.38Z" fill="white" stroke="black"/>
<path d="M334.917 139.38L266.994 91.9914C263.348 89.4476 258.347 92.0564 258.347 96.5021V226.741C258.347 230.963 262.907 233.611 266.574 231.518L334.496 192.745C336.211 191.766 337.27 189.943 337.27 187.969V143.891C337.27 142.093 336.391 140.409 334.917 139.38Z" fill="white" stroke="black"/>
<path d="M335.777 139.233H364.738C367.775 139.233 370.238 141.696 370.238 144.733V189.508C370.238 192.545 367.775 195.008 364.738 195.008H335.777C332.74 195.008 330.277 192.545 330.277 189.508V144.733C330.277 141.696 332.74 139.233 335.777 139.233Z" fill="white" stroke="black"/>
<path d="M592.003 136.442L566.881 132.626V116.726H653.377V132.626L626.029 136.442V221.984H737.965V136.442L712.207 132.626V116.726H797.431V132.626L772.309 136.442V334.238L797.431 337.418V353H711.889V337.418L737.965 334.238V241.7H626.029V334.238L653.695 337.418V353H566.245V337.418L592.003 334.238V136.442ZM967.919 355.862C961.983 355.862 957.531 354.696 954.563 352.364C951.807 350.032 950.429 346.216 950.429 340.916V330.104C943.433 337.1 934.635 343.248 924.035 348.548C913.647 353.848 903.153 356.498 892.553 356.498C872.837 356.498 858.845 351.198 850.577 340.598C842.309 329.998 838.175 312.508 838.175 288.128V195.908L820.367 190.82V176.828L864.887 172.694H865.205L871.247 176.51V285.584C871.247 297.88 872.095 307.526 873.791 314.522C875.699 321.306 878.879 326.394 883.331 329.786C887.995 332.966 894.673 334.556 903.365 334.556C911.845 334.556 919.795 332.754 927.215 329.15C934.635 325.546 941.101 321.306 946.613 316.43V195.908L923.717 190.82V176.828L972.053 172.694H972.371L979.685 176.51V336.782H998.765L998.447 351.092C992.511 352.576 987.317 353.742 982.865 354.59C978.625 355.438 973.643 355.862 967.919 355.862ZM1056.91 144.71C1050.12 144.71 1045.03 142.802 1041.64 138.986C1038.25 135.17 1036.55 130.294 1036.55 124.358C1036.55 117.574 1038.57 111.956 1042.6 107.504C1046.84 103.052 1052.56 100.826 1059.77 100.826C1066.98 100.826 1072.28 102.734 1075.67 106.55C1079.06 110.366 1080.76 115.242 1080.76 121.178C1080.76 128.386 1078.64 134.11 1074.4 138.35C1070.37 142.59 1064.64 144.71 1057.22 144.71H1056.91ZM1044.19 200.996L1020.02 195.272V178.418L1069.31 172.376H1069.94L1077.26 178.1V334.874L1102.7 337.418V353H1018.43V337.418L1044.19 334.556V200.996ZM1120.19 337.418L1139.59 334.556V200.996L1116.69 195.272V178.1L1162.17 172.376L1167.89 176.51L1169.8 189.23L1169.48 199.406C1176.9 192.622 1186.97 186.474 1199.69 180.962C1212.62 175.238 1224.18 172.376 1234.35 172.376C1245.8 172.376 1255.02 174.284 1262.02 178.1C1269.02 181.916 1274.32 187.852 1277.92 195.908C1284.7 190.184 1294.14 184.884 1306.22 180.008C1318.52 174.92 1329.97 172.376 1340.57 172.376C1353.71 172.376 1363.99 174.92 1371.41 180.008C1378.83 184.884 1384.03 192.622 1386.99 203.222C1390.17 213.61 1391.76 227.602 1391.76 245.198V334.556L1414.66 337.418V353H1338.98V337.418L1358.69 334.556V246.152C1358.69 233.856 1357.74 224.104 1355.83 216.896C1354.13 209.476 1350.74 203.964 1345.65 200.36C1340.78 196.756 1333.68 194.954 1324.35 194.954C1317.35 194.954 1309.93 196.544 1302.09 199.724C1294.24 202.692 1287.57 206.296 1282.05 210.536C1283.96 218.804 1284.92 230.57 1284.92 245.834V334.556L1307.49 337.418V353H1230.54V337.418L1251.53 334.556V245.516C1251.53 232.796 1250.68 222.938 1248.98 215.942C1247.5 208.946 1244.53 203.752 1240.08 200.36C1235.63 196.756 1228.84 194.954 1219.73 194.954C1212.09 194.954 1203.93 196.862 1195.24 200.678C1186.76 204.494 1179.34 208.946 1172.98 214.034V334.556L1194.29 337.418V353H1120.19V337.418ZM1469.71 144.71C1462.93 144.71 1457.84 142.802 1454.45 138.986C1451.05 135.17 1449.36 130.294 1449.36 124.358C1449.36 117.574 1451.37 111.956 1455.4 107.504C1459.64 103.052 1465.36 100.826 1472.57 100.826C1479.78 100.826 1485.08 102.734 1488.47 106.55C1491.86 110.366 1493.56 115.242 1493.56 121.178C1493.56 128.386 1491.44 134.11 1487.2 138.35C1483.17 142.59 1477.45 144.71 1470.03 144.71H1469.71ZM1456.99 200.996L1432.82 195.272V178.418L1482.11 172.376H1482.75L1490.06 178.1V334.874L1515.5 337.418V353H1431.23V337.418L1456.99 334.556V200.996ZM1587.69 356.18C1575.61 356.18 1566.6 353.424 1560.66 347.912C1554.72 342.4 1551.76 332.966 1551.76 319.61V197.498H1528.86V183.188C1529.92 182.976 1532.89 182.234 1537.76 180.962C1542.64 179.69 1545.93 178.524 1547.62 177.464C1551.01 175.556 1553.66 171.74 1555.57 166.016C1557.27 161.988 1559.28 155.522 1561.61 146.618C1563.95 137.714 1565.32 132.414 1565.75 130.718H1584.51L1585.15 176.51H1638.25V197.498H1585.15V295.124C1585.15 307.208 1585.46 315.688 1586.1 320.564C1586.95 325.44 1588.54 328.62 1590.87 330.104C1593.41 331.588 1597.65 332.33 1603.59 332.33C1609.31 332.33 1615.57 331.588 1622.35 330.104C1629.35 328.62 1634.75 327.03 1638.57 325.334L1643.34 339.644C1638.25 343.46 1629.98 347.17 1618.54 350.774C1607.3 354.378 1597.02 356.18 1587.69 356.18ZM1802.73 355.862C1796.79 355.862 1792.34 354.696 1789.37 352.364C1786.62 350.032 1785.24 346.216 1785.24 340.916V330.104C1778.24 337.1 1769.45 343.248 1758.85 348.548C1748.46 353.848 1737.96 356.498 1727.36 356.498C1707.65 356.498 1693.66 351.198 1685.39 340.598C1677.12 329.998 1672.99 312.508 1672.99 288.128V195.908L1655.18 190.82V176.828L1699.7 172.694H1700.02L1706.06 176.51V285.584C1706.06 297.88 1706.91 307.526 1708.6 314.522C1710.51 321.306 1713.69 326.394 1718.14 329.786C1722.81 332.966 1729.48 334.556 1738.18 334.556C1746.66 334.556 1754.61 332.754 1762.03 329.15C1769.45 325.546 1775.91 321.306 1781.42 316.43V195.908L1758.53 190.82V176.828L1806.86 172.694H1807.18L1814.5 176.51V336.782H1833.58L1833.26 351.092C1827.32 352.576 1822.13 353.742 1817.68 354.59C1813.44 355.438 1808.45 355.862 1802.73 355.862Z" fill="white"/>
<path d="M592.003 136.442H593.003V135.582L592.153 135.453L592.003 136.442ZM566.881 132.626H565.881V133.486L566.731 133.615L566.881 132.626ZM566.881 116.726V115.726H565.881V116.726H566.881ZM653.377 116.726H654.377V115.726H653.377V116.726ZM653.377 132.626L653.515 133.616L654.377 133.496V132.626H653.377ZM626.029 136.442L625.891 135.452L625.029 135.572V136.442H626.029ZM626.029 221.984H625.029V222.984H626.029V221.984ZM737.965 221.984V222.984H738.965V221.984H737.965ZM737.965 136.442H738.965V135.579L738.112 135.453L737.965 136.442ZM712.207 132.626H711.207V133.489L712.061 133.615L712.207 132.626ZM712.207 116.726V115.726H711.207V116.726H712.207ZM797.431 116.726H798.431V115.726H797.431V116.726ZM797.431 132.626L797.581 133.615L798.431 133.486V132.626H797.431ZM772.309 136.442L772.159 135.453L771.309 135.582V136.442H772.309ZM772.309 334.238H771.309V335.119L772.184 335.23L772.309 334.238ZM797.431 337.418H798.431V336.537L797.557 336.426L797.431 337.418ZM797.431 353V354H798.431V353H797.431ZM711.889 353H710.889V354H711.889V353ZM711.889 337.418L711.768 336.425L710.889 336.533V337.418H711.889ZM737.965 334.238L738.086 335.231L738.965 335.123V334.238H737.965ZM737.965 241.7H738.965V240.7H737.965V241.7ZM626.029 241.7V240.7H625.029V241.7H626.029ZM626.029 334.238H625.029V335.13L625.915 335.231L626.029 334.238ZM653.695 337.418H654.695V336.526L653.809 336.425L653.695 337.418ZM653.695 353V354H654.695V353H653.695ZM566.245 353H565.245V354H566.245V353ZM566.245 337.418L566.123 336.426L565.245 336.534V337.418H566.245ZM592.003 334.238L592.126 335.23L593.003 335.122V334.238H592.003ZM592.153 135.453L567.031 131.637L566.731 133.615L591.853 137.431L592.153 135.453ZM567.881 132.626V116.726H565.881V132.626H567.881ZM566.881 117.726H653.377V115.726H566.881V117.726ZM652.377 116.726V132.626H654.377V116.726H652.377ZM653.239 131.636L625.891 135.452L626.167 137.432L653.515 133.616L653.239 131.636ZM625.029 136.442V221.984H627.029V136.442H625.029ZM626.029 222.984H737.965V220.984H626.029V222.984ZM738.965 221.984V136.442H736.965V221.984H738.965ZM738.112 135.453L712.354 131.637L712.061 133.615L737.819 137.431L738.112 135.453ZM713.207 132.626V116.726H711.207V132.626H713.207ZM712.207 117.726H797.431V115.726H712.207V117.726ZM796.431 116.726V132.626H798.431V116.726H796.431ZM797.281 131.637L772.159 135.453L772.459 137.431L797.581 133.615L797.281 131.637ZM771.309 136.442V334.238H773.309V136.442H771.309ZM772.184 335.23L797.306 338.41L797.557 336.426L772.435 333.246L772.184 335.23ZM796.431 337.418V353H798.431V337.418H796.431ZM797.431 352H711.889V354H797.431V352ZM712.889 353V337.418H710.889V353H712.889ZM712.01 338.411L738.086 335.231L737.844 333.245L711.768 336.425L712.01 338.411ZM738.965 334.238V241.7H736.965V334.238H738.965ZM737.965 240.7H626.029V242.7H737.965V240.7ZM625.029 241.7V334.238H627.029V241.7H625.029ZM625.915 335.231L653.581 338.411L653.809 336.425L626.143 333.245L625.915 335.231ZM652.695 337.418V353H654.695V337.418H652.695ZM653.695 352H566.245V354H653.695V352ZM567.245 353V337.418H565.245V353H567.245ZM566.368 338.41L592.126 335.23L591.881 333.246L566.123 336.426L566.368 338.41ZM593.003 334.238V136.442H591.003V334.238H593.003ZM954.563 352.364L953.917 353.127L953.931 353.139L953.945 353.15L954.563 352.364ZM950.429 330.104H951.429V327.69L949.722 329.397L950.429 330.104ZM924.035 348.548L923.588 347.654L923.58 347.657L924.035 348.548ZM850.577 340.598L851.365 339.983L851.365 339.983L850.577 340.598ZM838.175 195.908H839.175V195.154L838.45 194.946L838.175 195.908ZM820.367 190.82H819.367V191.574L820.092 191.782L820.367 190.82ZM820.367 176.828L820.274 175.832L819.367 175.917V176.828H820.367ZM864.887 172.694V171.694H864.841L864.794 171.698L864.887 172.694ZM865.205 172.694L865.739 171.849L865.494 171.694H865.205V172.694ZM871.247 176.51H872.247V175.959L871.781 175.665L871.247 176.51ZM873.791 314.522L872.819 314.758L872.823 314.775L872.828 314.793L873.791 314.522ZM883.331 329.786L882.725 330.581L882.746 330.597L882.768 330.612L883.331 329.786ZM927.215 329.15L927.652 330.05L927.652 330.05L927.215 329.15ZM946.613 316.43L947.275 317.179L947.613 316.881V316.43H946.613ZM946.613 195.908H947.613V195.106L946.83 194.932L946.613 195.908ZM923.717 190.82H922.717V191.622L923.5 191.796L923.717 190.82ZM923.717 176.828L923.632 175.832L922.717 175.91V176.828H923.717ZM972.053 172.694V171.694H972.01L971.968 171.698L972.053 172.694ZM972.371 172.694L972.833 171.807L972.616 171.694H972.371V172.694ZM979.685 176.51H980.685V175.904L980.147 175.623L979.685 176.51ZM979.685 336.782H978.685V337.782H979.685V336.782ZM998.765 336.782L999.765 336.804L999.787 335.782H998.765V336.782ZM998.447 351.092L998.689 352.062L999.43 351.877L999.447 351.114L998.447 351.092ZM982.865 354.59L982.678 353.608L982.669 353.609L982.865 354.59ZM967.919 354.862C962.087 354.862 957.897 353.712 955.181 351.578L953.945 353.15C957.165 355.68 961.879 356.862 967.919 356.862V354.862ZM955.209 351.601C952.766 349.534 951.429 346.063 951.429 340.916H949.429C949.429 346.369 950.847 350.53 953.917 353.127L955.209 351.601ZM951.429 340.916V330.104H949.429V340.916H951.429ZM949.722 329.397C942.815 336.304 934.11 342.392 923.588 347.654L924.482 349.442C935.16 344.104 944.051 337.896 951.136 330.811L949.722 329.397ZM923.58 347.657C913.319 352.893 902.98 355.498 892.553 355.498V357.498C903.326 357.498 913.975 354.803 924.489 349.439L923.58 347.657ZM892.553 355.498C872.996 355.498 859.368 350.243 851.365 339.983L849.788 341.213C858.322 352.153 872.678 357.498 892.553 357.498V355.498ZM851.365 339.983C843.308 329.653 839.175 312.445 839.175 288.128H837.175C837.175 312.571 841.31 330.343 849.788 341.213L851.365 339.983ZM839.175 288.128V195.908H837.175V288.128H839.175ZM838.45 194.946L820.642 189.858L820.092 191.782L837.9 196.87L838.45 194.946ZM821.367 190.82V176.828H819.367V190.82H821.367ZM820.459 177.824L864.979 173.69L864.794 171.698L820.274 175.832L820.459 177.824ZM864.887 173.694H865.205V171.694H864.887V173.694ZM864.671 173.539L870.713 177.355L871.781 175.665L865.739 171.849L864.671 173.539ZM870.247 176.51V285.584H872.247V176.51H870.247ZM870.247 285.584C870.247 297.912 871.096 307.649 872.819 314.758L874.763 314.286C873.094 307.403 872.247 297.848 872.247 285.584H870.247ZM872.828 314.793C874.78 321.731 878.06 327.027 882.725 330.581L883.937 328.991C879.698 325.761 876.618 320.881 874.754 314.251L872.828 314.793ZM882.768 330.612C887.665 333.951 894.573 335.556 903.365 335.556V333.556C894.773 333.556 888.325 331.981 883.894 328.96L882.768 330.612ZM903.365 335.556C911.992 335.556 920.092 333.722 927.652 330.05L926.778 328.25C919.498 331.786 911.698 333.556 903.365 333.556V335.556ZM927.652 330.05C935.144 326.411 941.688 322.122 947.275 317.179L945.95 315.681C940.514 320.49 934.126 324.681 926.778 328.25L927.652 330.05ZM947.613 316.43V195.908H945.613V316.43H947.613ZM946.83 194.932L923.934 189.844L923.5 191.796L946.396 196.884L946.83 194.932ZM924.717 190.82V176.828H922.717V190.82H924.717ZM923.802 177.824L972.138 173.69L971.968 171.698L923.632 175.832L923.802 177.824ZM972.053 173.694H972.371V171.694H972.053V173.694ZM971.908 173.581L979.222 177.397L980.147 175.623L972.833 171.807L971.908 173.581ZM978.685 176.51V336.782H980.685V176.51H978.685ZM979.685 337.782H998.765V335.782H979.685V337.782ZM997.765 336.76L997.447 351.07L999.447 351.114L999.765 336.804L997.765 336.76ZM998.204 350.122C992.281 351.603 987.106 352.764 982.678 353.608L983.052 355.572C987.528 354.72 992.741 353.549 998.689 352.062L998.204 350.122ZM982.669 353.609C978.51 354.441 973.597 354.862 967.919 354.862V356.862C973.689 356.862 978.74 356.435 983.061 355.571L982.669 353.609ZM1041.64 138.986L1040.9 139.65L1040.9 139.65L1041.64 138.986ZM1042.6 107.504L1041.87 106.814L1041.86 106.824L1041.86 106.833L1042.6 107.504ZM1075.67 106.55L1076.42 105.886L1076.42 105.886L1075.67 106.55ZM1074.4 138.35L1073.69 137.643L1073.68 137.652L1073.67 137.661L1074.4 138.35ZM1044.19 200.996H1045.19V200.205L1044.42 200.023L1044.19 200.996ZM1020.02 195.272H1019.02V196.063L1019.79 196.245L1020.02 195.272ZM1020.02 178.418L1019.9 177.425L1019.02 177.533V178.418H1020.02ZM1069.31 172.376V171.376H1069.25L1069.19 171.383L1069.31 172.376ZM1069.94 172.376L1070.56 171.588L1070.29 171.376H1069.94V172.376ZM1077.26 178.1H1078.26V177.613L1077.88 177.312L1077.26 178.1ZM1077.26 334.874H1076.26V335.779L1077.16 335.869L1077.26 334.874ZM1102.7 337.418H1103.7V336.513L1102.8 336.423L1102.7 337.418ZM1102.7 353V354H1103.7V353H1102.7ZM1018.43 353H1017.43V354H1018.43V353ZM1018.43 337.418L1018.32 336.424L1017.43 336.523V337.418H1018.43ZM1044.19 334.556L1044.3 335.55L1045.19 335.451V334.556H1044.19ZM1056.91 143.71C1050.31 143.71 1045.54 141.86 1042.39 138.322L1040.9 139.65C1044.53 143.744 1049.94 145.71 1056.91 145.71V143.71ZM1042.39 138.322C1039.19 134.718 1037.55 130.091 1037.55 124.358H1035.55C1035.55 130.497 1037.31 135.622 1040.9 139.65L1042.39 138.322ZM1037.55 124.358C1037.55 117.787 1039.5 112.419 1043.34 108.175L1041.86 106.833C1037.64 111.493 1035.55 117.361 1035.55 124.358H1037.55ZM1043.32 108.194C1047.34 103.974 1052.78 101.826 1059.77 101.826V99.826C1052.34 99.826 1046.33 102.13 1041.87 106.814L1043.32 108.194ZM1059.77 101.826C1066.81 101.826 1071.79 103.688 1074.92 107.214L1076.42 105.886C1072.77 101.78 1067.14 99.826 1059.77 99.826V101.826ZM1074.92 107.214C1078.12 110.818 1079.76 115.445 1079.76 121.178H1081.76C1081.76 115.039 1080 109.914 1076.42 105.886L1074.92 107.214ZM1079.76 121.178C1079.76 128.178 1077.71 133.627 1073.69 137.643L1075.1 139.057C1079.57 134.593 1081.76 128.594 1081.76 121.178H1079.76ZM1073.67 137.661C1069.88 141.652 1064.45 143.71 1057.22 143.71V145.71C1064.84 145.71 1070.86 143.528 1075.12 139.039L1073.67 137.661ZM1057.22 143.71H1056.91V145.71H1057.22V143.71ZM1044.42 200.023L1020.25 194.299L1019.79 196.245L1043.96 201.969L1044.42 200.023ZM1021.02 195.272V178.418H1019.02V195.272H1021.02ZM1020.14 179.411L1069.43 173.369L1069.19 171.383L1019.9 177.425L1020.14 179.411ZM1069.31 173.376H1069.94V171.376H1069.31V173.376ZM1069.33 173.163L1076.64 178.888L1077.88 177.312L1070.56 171.588L1069.33 173.163ZM1076.26 178.1V334.874H1078.26V178.1H1076.26ZM1077.16 335.869L1102.6 338.413L1102.8 336.423L1077.36 333.879L1077.16 335.869ZM1101.7 337.418V353H1103.7V337.418H1101.7ZM1102.7 352H1018.43V354H1102.7V352ZM1019.43 353V337.418H1017.43V353H1019.43ZM1018.54 338.412L1044.3 335.55L1044.08 333.562L1018.32 336.424L1018.54 338.412ZM1045.19 334.556V200.996H1043.19V334.556H1045.19ZM1120.19 337.418L1120.05 336.429L1119.19 336.555V337.418H1120.19ZM1139.59 334.556L1139.74 335.545L1140.59 335.419V334.556H1139.59ZM1139.59 200.996H1140.59V200.215L1139.83 200.026L1139.59 200.996ZM1116.69 195.272H1115.69V196.053L1116.45 196.242L1116.69 195.272ZM1116.69 178.1L1116.57 177.108L1115.69 177.218V178.1H1116.69ZM1162.17 172.376L1162.75 171.565L1162.43 171.335L1162.04 171.384L1162.17 172.376ZM1167.89 176.51L1168.88 176.362L1168.82 175.946L1168.48 175.699L1167.89 176.51ZM1169.8 189.23L1170.8 189.261L1170.8 189.171L1170.79 189.082L1169.8 189.23ZM1169.48 199.406L1168.48 199.375L1168.41 201.742L1170.16 200.144L1169.48 199.406ZM1199.69 180.962L1200.09 181.88L1200.1 181.876L1199.69 180.962ZM1277.92 195.908L1277.01 196.316L1277.55 197.529L1278.56 196.672L1277.92 195.908ZM1306.22 180.008L1306.6 180.935L1306.6 180.932L1306.22 180.008ZM1371.41 180.008L1370.85 180.833L1370.85 180.838L1370.86 180.844L1371.41 180.008ZM1386.99 203.222L1386.03 203.492L1386.03 203.503L1386.04 203.515L1386.99 203.222ZM1391.76 334.556H1390.76V335.439L1391.64 335.548L1391.76 334.556ZM1414.66 337.418H1415.66V336.535L1414.78 336.426L1414.66 337.418ZM1414.66 353V354H1415.66V353H1414.66ZM1338.98 353H1337.98V354H1338.98V353ZM1338.98 337.418L1338.83 336.428L1337.98 336.553V337.418H1338.98ZM1358.69 334.556L1358.83 335.546L1359.69 335.421V334.556H1358.69ZM1355.83 216.896L1354.85 217.119L1354.86 217.135L1354.86 217.152L1355.83 216.896ZM1345.65 200.36L1345.06 201.164L1345.07 201.17L1345.08 201.176L1345.65 200.36ZM1302.09 199.724L1302.44 200.659L1302.45 200.655L1302.46 200.651L1302.09 199.724ZM1282.05 210.536L1281.44 209.743L1280.93 210.135L1281.08 210.761L1282.05 210.536ZM1284.92 334.556H1283.92V335.437L1284.79 335.548L1284.92 334.556ZM1307.49 337.418H1308.49V336.537L1307.62 336.426L1307.49 337.418ZM1307.49 353V354H1308.49V353H1307.49ZM1230.54 353H1229.54V354H1230.54V353ZM1230.54 337.418L1230.4 336.427L1229.54 336.545V337.418H1230.54ZM1251.53 334.556L1251.66 335.547L1252.53 335.429V334.556H1251.53ZM1248.98 215.942L1248 216.149L1248.01 216.164L1248.01 216.178L1248.98 215.942ZM1240.08 200.36L1239.45 201.137L1239.46 201.147L1239.47 201.155L1240.08 200.36ZM1195.24 200.678L1194.84 199.762L1194.83 199.766L1195.24 200.678ZM1172.98 214.034L1172.35 213.253L1171.98 213.553V214.034H1172.98ZM1172.98 334.556H1171.98V335.431L1172.85 335.547L1172.98 334.556ZM1194.29 337.418H1195.29V336.543L1194.42 336.427L1194.29 337.418ZM1194.29 353V354H1195.29V353H1194.29ZM1120.19 353H1119.19V354H1120.19V353ZM1120.34 338.407L1139.74 335.545L1139.44 333.567L1120.05 336.429L1120.34 338.407ZM1140.59 334.556V200.996H1138.59V334.556H1140.59ZM1139.83 200.026L1116.94 194.302L1116.45 196.242L1139.35 201.966L1139.83 200.026ZM1117.69 195.272V178.1H1115.69V195.272H1117.69ZM1116.82 179.092L1162.29 173.368L1162.04 171.384L1116.57 177.108L1116.82 179.092ZM1161.58 173.187L1167.31 177.321L1168.48 175.699L1162.75 171.565L1161.58 173.187ZM1166.9 176.658L1168.81 189.378L1170.79 189.082L1168.88 176.362L1166.9 176.658ZM1168.8 189.199L1168.48 199.375L1170.48 199.437L1170.8 189.261L1168.8 189.199ZM1170.16 200.144C1177.47 193.457 1187.43 187.363 1200.09 181.88L1199.29 180.044C1186.51 185.585 1176.33 191.787 1168.81 198.668L1170.16 200.144ZM1200.1 181.876C1212.95 176.188 1224.36 173.376 1234.35 173.376V171.376C1223.99 171.376 1212.3 174.288 1199.29 180.048L1200.1 181.876ZM1234.35 173.376C1245.7 173.376 1254.74 175.269 1261.54 178.978L1262.5 177.222C1255.3 173.299 1245.9 171.376 1234.35 171.376V173.376ZM1261.54 178.978C1268.32 182.678 1273.48 188.437 1277.01 196.316L1278.83 195.5C1275.15 187.267 1269.71 181.154 1262.5 177.222L1261.54 178.978ZM1278.56 196.672C1285.24 191.041 1294.57 185.788 1306.6 180.935L1305.85 179.081C1293.71 183.98 1284.17 189.327 1277.27 195.144L1278.56 196.672ZM1306.6 180.932C1318.81 175.882 1330.13 173.376 1340.57 173.376V171.376C1329.81 171.376 1318.23 173.958 1305.84 179.084L1306.6 180.932ZM1340.57 173.376C1353.6 173.376 1363.65 175.9 1370.85 180.833L1371.98 179.183C1364.33 173.94 1353.82 171.376 1340.57 171.376V173.376ZM1370.86 180.844C1378.04 185.557 1383.11 193.066 1386.03 203.492L1387.96 202.952C1384.94 192.178 1379.63 184.21 1371.96 179.172L1370.86 180.844ZM1386.04 203.515C1389.18 213.768 1390.76 227.648 1390.76 245.198H1392.76C1392.76 227.556 1391.17 213.452 1387.95 202.929L1386.04 203.515ZM1390.76 245.198V334.556H1392.76V245.198H1390.76ZM1391.64 335.548L1414.54 338.41L1414.78 336.426L1391.89 333.564L1391.64 335.548ZM1413.66 337.418V353H1415.66V337.418H1413.66ZM1414.66 352H1338.98V354H1414.66V352ZM1339.98 353V337.418H1337.98V353H1339.98ZM1339.12 338.408L1358.83 335.546L1358.55 333.566L1338.83 336.428L1339.12 338.408ZM1359.69 334.556V246.152H1357.69V334.556H1359.69ZM1359.69 246.152C1359.69 233.818 1358.74 223.968 1356.8 216.64L1354.86 217.152C1356.74 224.24 1357.69 233.894 1357.69 246.152H1359.69ZM1356.8 216.673C1355.07 209.069 1351.56 203.32 1346.23 199.544L1345.08 201.176C1349.92 204.608 1353.2 209.883 1354.85 217.119L1356.8 216.673ZM1346.25 199.556C1341.13 195.773 1333.78 193.954 1324.35 193.954V195.954C1333.57 195.954 1340.43 197.739 1345.06 201.164L1346.25 199.556ZM1324.35 193.954C1317.2 193.954 1309.65 195.579 1301.71 198.797L1302.46 200.651C1310.21 197.509 1317.5 195.954 1324.35 195.954V193.954ZM1301.73 198.789C1293.82 201.785 1287.05 205.433 1281.44 209.743L1282.66 211.329C1288.08 207.159 1294.67 203.599 1302.44 200.659L1301.73 198.789ZM1281.08 210.761C1282.96 218.919 1283.92 230.596 1283.92 245.834H1285.92C1285.92 230.544 1284.96 218.689 1283.03 210.311L1281.08 210.761ZM1283.92 245.834V334.556H1285.92V245.834H1283.92ZM1284.79 335.548L1307.37 338.41L1307.62 336.426L1285.04 333.564L1284.79 335.548ZM1306.49 337.418V353H1308.49V337.418H1306.49ZM1307.49 352H1230.54V354H1307.49V352ZM1231.54 353V337.418H1229.54V353H1231.54ZM1230.67 338.409L1251.66 335.547L1251.39 333.565L1230.4 336.427L1230.67 338.409ZM1252.53 334.556V245.516H1250.53V334.556H1252.53ZM1252.53 245.516C1252.53 232.767 1251.68 222.817 1249.95 215.706L1248.01 216.178C1249.68 223.059 1250.53 232.825 1250.53 245.516H1252.53ZM1249.96 215.734C1248.44 208.571 1245.37 203.138 1240.68 199.565L1239.47 201.155C1243.68 204.366 1246.55 209.321 1248 216.149L1249.96 215.734ZM1240.71 199.583C1236 195.771 1228.94 193.954 1219.73 193.954V195.954C1228.74 195.954 1235.25 197.741 1239.45 201.137L1240.71 199.583ZM1219.73 193.954C1211.93 193.954 1203.63 195.904 1194.84 199.762L1195.64 201.594C1204.24 197.82 1212.26 195.954 1219.73 195.954V193.954ZM1194.83 199.766C1186.28 203.612 1178.79 208.106 1172.35 213.253L1173.6 214.815C1179.89 209.786 1187.24 205.376 1195.65 201.59L1194.83 199.766ZM1171.98 214.034V334.556H1173.98V214.034H1171.98ZM1172.85 335.547L1194.15 338.409L1194.42 336.427L1173.11 333.565L1172.85 335.547ZM1193.29 337.418V353H1195.29V337.418H1193.29ZM1194.29 352H1120.19V354H1194.29V352ZM1121.19 353V337.418H1119.19V353H1121.19ZM1454.45 138.986L1453.7 139.65L1453.7 139.65L1454.45 138.986ZM1455.4 107.504L1454.68 106.814L1454.67 106.824L1454.66 106.833L1455.4 107.504ZM1488.47 106.55L1489.22 105.886L1489.22 105.886L1488.47 106.55ZM1487.2 138.35L1486.49 137.643L1486.48 137.652L1486.48 137.661L1487.2 138.35ZM1456.99 200.996H1457.99V200.205L1457.22 200.023L1456.99 200.996ZM1432.82 195.272H1431.82V196.063L1432.59 196.245L1432.82 195.272ZM1432.82 178.418L1432.7 177.425L1431.82 177.533V178.418H1432.82ZM1482.11 172.376V171.376H1482.05L1481.99 171.383L1482.11 172.376ZM1482.75 172.376L1483.36 171.588L1483.09 171.376H1482.75V172.376ZM1490.06 178.1H1491.06V177.613L1490.68 177.312L1490.06 178.1ZM1490.06 334.874H1489.06V335.779L1489.96 335.869L1490.06 334.874ZM1515.5 337.418H1516.5V336.513L1515.6 336.423L1515.5 337.418ZM1515.5 353V354H1516.5V353H1515.5ZM1431.23 353H1430.23V354H1431.23V353ZM1431.23 337.418L1431.12 336.424L1430.23 336.523V337.418H1431.23ZM1456.99 334.556L1457.1 335.55L1457.99 335.451V334.556H1456.99ZM1469.71 143.71C1463.11 143.71 1458.34 141.86 1455.19 138.322L1453.7 139.65C1457.34 143.744 1462.74 145.71 1469.71 145.71V143.71ZM1455.19 138.322C1451.99 134.718 1450.36 130.091 1450.36 124.358H1448.36C1448.36 130.497 1450.12 135.622 1453.7 139.65L1455.19 138.322ZM1450.36 124.358C1450.36 117.787 1452.3 112.419 1456.14 108.175L1454.66 106.833C1450.44 111.493 1448.36 117.361 1448.36 124.358H1450.36ZM1456.12 108.194C1460.14 103.974 1465.59 101.826 1472.57 101.826V99.826C1465.14 99.826 1459.14 102.13 1454.68 106.814L1456.12 108.194ZM1472.57 101.826C1479.62 101.826 1484.59 103.688 1487.73 107.214L1489.22 105.886C1485.57 101.78 1479.94 99.826 1472.57 99.826V101.826ZM1487.73 107.214C1490.93 110.818 1492.56 115.445 1492.56 121.178H1494.56C1494.56 115.039 1492.8 109.914 1489.22 105.886L1487.73 107.214ZM1492.56 121.178C1492.56 128.178 1490.51 133.627 1486.49 137.643L1487.91 139.057C1492.37 134.593 1494.56 128.594 1494.56 121.178H1492.56ZM1486.48 137.661C1482.68 141.652 1477.25 143.71 1470.03 143.71V145.71C1477.64 145.71 1483.66 143.528 1487.93 139.039L1486.48 137.661ZM1470.03 143.71H1469.71V145.71H1470.03V143.71ZM1457.22 200.023L1433.05 194.299L1432.59 196.245L1456.76 201.969L1457.22 200.023ZM1433.82 195.272V178.418H1431.82V195.272H1433.82ZM1432.94 179.411L1482.23 173.369L1481.99 171.383L1432.7 177.425L1432.94 179.411ZM1482.11 173.376H1482.75V171.376H1482.11V173.376ZM1482.13 173.163L1489.45 178.888L1490.68 177.312L1483.36 171.588L1482.13 173.163ZM1489.06 178.1V334.874H1491.06V178.1H1489.06ZM1489.96 335.869L1515.4 338.413L1515.6 336.423L1490.16 333.879L1489.96 335.869ZM1514.5 337.418V353H1516.5V337.418H1514.5ZM1515.5 352H1431.23V354H1515.5V352ZM1432.23 353V337.418H1430.23V353H1432.23ZM1431.34 338.412L1457.1 335.55L1456.88 333.562L1431.12 336.424L1431.34 338.412ZM1457.99 334.556V200.996H1455.99V334.556H1457.99ZM1560.66 347.912L1561.34 347.179L1561.34 347.179L1560.66 347.912ZM1551.76 197.498H1552.76V196.498H1551.76V197.498ZM1528.86 197.498H1527.86V198.498H1528.86V197.498ZM1528.86 183.188L1528.66 182.207L1527.86 182.368V183.188H1528.86ZM1537.76 180.962L1538.02 181.93L1538.02 181.93L1537.76 180.962ZM1547.62 177.464L1547.13 176.592L1547.11 176.604L1547.09 176.616L1547.62 177.464ZM1555.57 166.016L1554.65 165.628L1554.64 165.663L1554.62 165.7L1555.57 166.016ZM1561.61 146.618L1560.65 146.365L1560.65 146.365L1561.61 146.618ZM1565.75 130.718V129.718H1564.97L1564.78 130.475L1565.75 130.718ZM1584.51 130.718L1585.51 130.704L1585.5 129.718H1584.51V130.718ZM1585.15 176.51L1584.15 176.524L1584.16 177.51H1585.15V176.51ZM1638.25 176.51H1639.25V175.51H1638.25V176.51ZM1638.25 197.498V198.498H1639.25V197.498H1638.25ZM1585.15 197.498V196.498H1584.15V197.498H1585.15ZM1586.1 320.564L1585.11 320.693L1585.11 320.714L1585.12 320.735L1586.1 320.564ZM1590.87 330.104L1590.33 330.948L1590.35 330.958L1590.37 330.968L1590.87 330.104ZM1622.35 330.104L1622.15 329.126L1622.14 329.127L1622.35 330.104ZM1638.57 325.334L1639.52 325.018L1639.17 323.973L1638.16 324.42L1638.57 325.334ZM1643.34 339.644L1643.94 340.444L1644.52 340.012L1644.29 339.328L1643.34 339.644ZM1618.54 350.774L1618.24 349.82L1618.23 349.822L1618.54 350.774ZM1587.69 355.18C1575.74 355.18 1567.02 352.452 1561.34 347.179L1559.98 348.645C1566.17 354.396 1575.48 357.18 1587.69 357.18V355.18ZM1561.34 347.179C1555.71 341.949 1552.76 332.861 1552.76 319.61H1550.76C1550.76 333.071 1553.74 342.851 1559.98 348.645L1561.34 347.179ZM1552.76 319.61V197.498H1550.76V319.61H1552.76ZM1551.76 196.498H1528.86V198.498H1551.76V196.498ZM1529.86 197.498V183.188H1527.86V197.498H1529.86ZM1529.06 184.169C1530.15 183.949 1533.15 183.198 1538.02 181.93L1537.51 179.994C1532.62 181.27 1529.69 182.002 1528.66 182.207L1529.06 184.169ZM1538.02 181.93C1542.89 180.659 1546.31 179.463 1548.15 178.312L1547.09 176.616C1545.54 177.585 1542.4 178.721 1537.51 179.994L1538.02 181.93ZM1548.11 178.336C1551.81 176.254 1554.58 172.167 1556.52 166.332L1554.62 165.7C1552.75 171.313 1550.22 174.858 1547.13 176.592L1548.11 178.336ZM1556.49 166.404C1558.22 162.307 1560.25 155.783 1562.58 146.871L1560.65 146.365C1558.32 155.261 1556.32 161.669 1554.65 165.628L1556.49 166.404ZM1562.58 146.871C1564.91 137.97 1566.29 132.663 1566.72 130.961L1564.78 130.475C1564.36 132.165 1562.98 137.458 1560.65 146.365L1562.58 146.871ZM1565.75 131.718H1584.51V129.718H1565.75V131.718ZM1583.51 130.732L1584.15 176.524L1586.15 176.496L1585.51 130.704L1583.51 130.732ZM1585.15 177.51H1638.25V175.51H1585.15V177.51ZM1637.25 176.51V197.498H1639.25V176.51H1637.25ZM1638.25 196.498H1585.15V198.498H1638.25V196.498ZM1584.15 197.498V295.124H1586.15V197.498H1584.15ZM1584.15 295.124C1584.15 307.207 1584.46 315.746 1585.11 320.693L1587.09 320.435C1586.47 315.63 1586.15 307.209 1586.15 295.124H1584.15ZM1585.12 320.735C1585.98 325.685 1587.63 329.229 1590.33 330.948L1591.41 329.26C1589.44 328.011 1587.92 325.195 1587.09 320.393L1585.12 320.735ZM1590.37 330.968C1593.15 332.593 1597.62 333.33 1603.59 333.33V331.33C1597.69 331.33 1593.68 330.583 1591.37 329.24L1590.37 330.968ZM1603.59 333.33C1609.4 333.33 1615.73 332.577 1622.57 331.081L1622.14 329.127C1615.41 330.599 1609.23 331.33 1603.59 331.33V333.33ZM1622.56 331.082C1629.58 329.592 1635.07 327.985 1638.98 326.248L1638.16 324.42C1634.44 326.075 1629.11 327.648 1622.15 329.126L1622.56 331.082ZM1637.62 325.65L1642.39 339.96L1644.29 339.328L1639.52 325.018L1637.62 325.65ZM1642.74 338.844C1637.79 342.556 1629.65 346.226 1618.24 349.82L1618.84 351.728C1630.32 348.114 1638.71 344.364 1643.94 340.444L1642.74 338.844ZM1618.23 349.822C1607.07 353.402 1596.89 355.18 1587.69 355.18V357.18C1597.15 357.18 1607.53 355.354 1618.84 351.726L1618.23 349.822ZM1789.37 352.364L1788.73 353.127L1788.74 353.139L1788.76 353.15L1789.37 352.364ZM1785.24 330.104H1786.24V327.69L1784.53 329.397L1785.24 330.104ZM1758.85 348.548L1758.4 347.654L1758.39 347.657L1758.85 348.548ZM1685.39 340.598L1686.18 339.983L1686.18 339.983L1685.39 340.598ZM1672.99 195.908H1673.99V195.154L1673.26 194.946L1672.99 195.908ZM1655.18 190.82H1654.18V191.574L1654.9 191.782L1655.18 190.82ZM1655.18 176.828L1655.09 175.832L1654.18 175.917V176.828H1655.18ZM1699.7 172.694V171.694H1699.65L1699.61 171.698L1699.7 172.694ZM1700.02 172.694L1700.55 171.849L1700.31 171.694H1700.02V172.694ZM1706.06 176.51H1707.06V175.959L1706.59 175.665L1706.06 176.51ZM1708.6 314.522L1707.63 314.758L1707.64 314.775L1707.64 314.793L1708.6 314.522ZM1718.14 329.786L1717.54 330.581L1717.56 330.597L1717.58 330.612L1718.14 329.786ZM1762.03 329.15L1762.46 330.05L1762.46 330.05L1762.03 329.15ZM1781.42 316.43L1782.09 317.179L1782.42 316.881V316.43H1781.42ZM1781.42 195.908H1782.42V195.106L1781.64 194.932L1781.42 195.908ZM1758.53 190.82H1757.53V191.622L1758.31 191.796L1758.53 190.82ZM1758.53 176.828L1758.44 175.832L1757.53 175.91V176.828H1758.53ZM1806.86 172.694V171.694H1806.82L1806.78 171.698L1806.86 172.694ZM1807.18 172.694L1807.65 171.807L1807.43 171.694H1807.18V172.694ZM1814.5 176.51H1815.5V175.904L1814.96 175.623L1814.5 176.51ZM1814.5 336.782H1813.5V337.782H1814.5V336.782ZM1833.58 336.782L1834.58 336.804L1834.6 335.782H1833.58V336.782ZM1833.26 351.092L1833.5 352.062L1834.24 351.877L1834.26 351.114L1833.26 351.092ZM1817.68 354.59L1817.49 353.608L1817.48 353.609L1817.68 354.59ZM1802.73 354.862C1796.9 354.862 1792.71 353.712 1789.99 351.578L1788.76 353.15C1791.98 355.68 1796.69 356.862 1802.73 356.862V354.862ZM1790.02 351.601C1787.58 349.534 1786.24 346.063 1786.24 340.916H1784.24C1784.24 346.369 1785.66 350.53 1788.73 353.127L1790.02 351.601ZM1786.24 340.916V330.104H1784.24V340.916H1786.24ZM1784.53 329.397C1777.63 336.304 1768.92 342.392 1758.4 347.654L1759.29 349.442C1769.97 344.104 1778.86 337.896 1785.95 330.811L1784.53 329.397ZM1758.39 347.657C1748.13 352.893 1737.79 355.498 1727.36 355.498V357.498C1738.14 357.498 1748.79 354.803 1759.3 349.439L1758.39 347.657ZM1727.36 355.498C1707.81 355.498 1694.18 350.243 1686.18 339.983L1684.6 341.213C1693.13 352.153 1707.49 357.498 1727.36 357.498V355.498ZM1686.18 339.983C1678.12 329.653 1673.99 312.445 1673.99 288.128H1671.99C1671.99 312.571 1676.12 330.343 1684.6 341.213L1686.18 339.983ZM1673.99 288.128V195.908H1671.99V288.128H1673.99ZM1673.26 194.946L1655.45 189.858L1654.9 191.782L1672.71 196.87L1673.26 194.946ZM1656.18 190.82V176.828H1654.18V190.82H1656.18ZM1655.27 177.824L1699.79 173.69L1699.61 171.698L1655.09 175.832L1655.27 177.824ZM1699.7 173.694H1700.02V171.694H1699.7V173.694ZM1699.48 173.539L1705.52 177.355L1706.59 175.665L1700.55 171.849L1699.48 173.539ZM1705.06 176.51V285.584H1707.06V176.51H1705.06ZM1705.06 285.584C1705.06 297.912 1705.91 307.649 1707.63 314.758L1709.57 314.286C1707.91 307.403 1707.06 297.848 1707.06 285.584H1705.06ZM1707.64 314.793C1709.59 321.731 1712.87 327.027 1717.54 330.581L1718.75 328.991C1714.51 325.761 1711.43 320.881 1709.57 314.251L1707.64 314.793ZM1717.58 330.612C1722.48 333.951 1729.38 335.556 1738.18 335.556V333.556C1729.58 333.556 1723.14 331.981 1718.71 328.96L1717.58 330.612ZM1738.18 335.556C1746.8 335.556 1754.9 333.722 1762.46 330.05L1761.59 328.25C1754.31 331.786 1746.51 333.556 1738.18 333.556V335.556ZM1762.46 330.05C1769.96 326.411 1776.5 322.122 1782.09 317.179L1780.76 315.681C1775.33 320.49 1768.94 324.681 1761.59 328.25L1762.46 330.05ZM1782.42 316.43V195.908H1780.42V316.43H1782.42ZM1781.64 194.932L1758.75 189.844L1758.31 191.796L1781.21 196.884L1781.64 194.932ZM1759.53 190.82V176.828H1757.53V190.82H1759.53ZM1758.61 177.824L1806.95 173.69L1806.78 171.698L1758.44 175.832L1758.61 177.824ZM1806.86 173.694H1807.18V171.694H1806.86V173.694ZM1806.72 173.581L1814.03 177.397L1814.96 175.623L1807.65 171.807L1806.72 173.581ZM1813.5 176.51V336.782H1815.5V176.51H1813.5ZM1814.5 337.782H1833.58V335.782H1814.5V337.782ZM1832.58 336.76L1832.26 351.07L1834.26 351.114L1834.58 336.804L1832.58 336.76ZM1833.02 350.122C1827.09 351.603 1821.92 352.764 1817.49 353.608L1817.86 355.572C1822.34 354.72 1827.55 353.549 1833.5 352.062L1833.02 350.122ZM1817.48 353.609C1813.32 354.441 1808.41 354.862 1802.73 354.862V356.862C1808.5 356.862 1813.55 356.435 1817.87 355.571L1817.48 353.609Z" fill="black"/>
</svg>
